<svg data-v-423bf9ae="" xmlns="http://www.w3.org/2000/svg" viewBox="0 0 1632.8846372724202 2672" class="iconAbove"><!----><!----><!----><g data-v-423bf9ae="" id="3085db08-ed11-4aef-995f-51c0ed64fb2c" fill="white" transform="matrix(5.5813953488372094,0,0,5.5813953488372094,531.4562817922858,2611.4365234375)"><path d="M0.35 2.55L0.35 0.71L4.89 0.71L4.89 0.71Q6.10 0.71 6.86 0.96L6.86 0.96L6.86 0.96Q7.62 1.20 8.04 1.62L8.04 1.62L8.04 1.62Q8.46 2.03 8.60 2.57L8.60 2.57L8.60 2.57Q8.75 3.11 8.75 3.71L8.75 3.71L8.75 3.71Q8.75 4.41 8.46 4.93L8.46 4.93L8.46 4.93Q8.16 5.45 7.66 5.79L7.66 5.79L7.66 5.79Q7.15 6.13 6.49 6.31L6.49 6.31L6.49 6.31Q5.82 6.48 5.07 6.48L5.07 6.48L4.00 6.48L4.00 8.65L4.86 8.65L4.86 10.50L0.35 10.50L0.35 8.65L1.13 8.65L1.13 2.55L0.35 2.55ZM4.70 2.53L4.00 2.53L4.00 4.97L4.63 4.97L4.63 4.97Q5.25 4.97 5.63 4.67L5.63 4.67L5.63 4.67Q6.01 4.37 6.01 3.81L6.01 3.81L6.01 3.81Q6.01 3.18 5.66 2.86L5.66 2.86L5.66 2.86Q5.32 2.53 4.70 2.53L4.70 2.53ZM13.23 8.67L13.23 10.50L9.31 10.50L9.31 8.67L9.90 8.67L9.90 5.32L9.31 5.32L9.31 3.50L12.56 3.50L12.56 8.67L13.23 8.67ZM9.70 1.46L9.70 1.46L9.70 1.46Q9.70 1.22 9.80 0.97L9.80 0.97L9.80 0.97Q9.90 0.71 10.09 0.50L10.09 0.50L10.09 0.50Q10.28 0.29 10.56 0.16L10.56 0.16L10.56 0.16Q10.85 0.03 11.21 0.03L11.21 0.03L11.21 0.03Q11.58 0.03 11.87 0.16L11.87 0.16L11.87 0.16Q12.15 0.29 12.35 0.50L12.35 0.50L12.35 0.50Q12.54 0.71 12.65 0.97L12.65 0.97L12.65 0.97Q12.75 1.22 12.75 1.46L12.75 1.46L12.75 1.46Q12.75 2.04 12.36 2.46L12.36 2.46L12.36 2.46Q11.97 2.87 11.21 2.87L11.21 2.87L11.21 2.87Q10.88 2.87 10.61 2.74L10.61 2.74L10.61 2.74Q10.33 2.62 10.13 2.41L10.13 2.41L10.13 2.41Q9.93 2.21 9.81 1.96L9.81 1.96L9.81 1.96Q9.70 1.71 9.70 1.46ZM17.64 10.68L17.64 10.68L17.64 10.68Q16.88 10.68 16.18 10.45L16.18 10.45L16.18 10.45Q15.47 10.22 14.92 9.76L14.92 9.76L14.92 9.76Q14.38 9.30 14.05 8.60L14.05 8.60L14.05 8.60Q13.72 7.90 13.73 6.97L13.73 6.97L13.73 6.97Q13.73 6.09 14.06 5.41L14.06 5.41L14.06 5.41Q14.39 4.73 14.93 4.27L14.93 4.27L14.93 4.27Q15.47 3.81 16.16 3.57L16.16 3.57L16.16 3.57Q16.84 3.33 17.57 3.33L17.57 3.33L17.57 3.33Q18.40 3.35 19.10 3.59L19.10 3.59L19.10 3.59Q19.81 3.84 20.33 4.31L20.33 4.31L20.33 4.31Q20.85 4.79 21.15 5.47L21.15 5.47L21.15 5.47Q21.45 6.15 21.46 7.03L21.46 7.03L21.46 7.03Q21.48 7.90 21.18 8.57L21.18 8.57L21.18 8.57Q20.87 9.25 20.36 9.72L20.36 9.72L20.36 9.72Q19.84 10.19 19.14 10.44L19.14 10.44L19.14 10.44Q18.44 10.68 17.64 10.68ZM17.64 8.89L17.64 8.89L17.64 8.89Q17.86 8.89 18.04 8.75L18.04 8.75L18.04 8.75Q18.21 8.61 18.34 8.36L18.34 8.36L18.34 8.36Q18.47 8.11 18.53 7.76L18.53 7.76L18.53 7.76Q18.59 7.42 18.59 7.03L18.59 7.03L18.59 7.03Q18.59 6.23 18.33 5.70L18.33 5.70L18.33 5.70Q18.06 5.17 17.57 5.15L17.57 5.15L17.57 5.15Q17.36 5.15 17.19 5.29L17.19 5.29L17.19 5.29Q17.01 5.43 16.88 5.68L16.88 5.68L16.88 5.68Q16.76 5.94 16.68 6.27L16.68 6.27L16.68 6.27Q16.60 6.61 16.60 6.99L16.60 6.99L16.60 6.99Q16.60 7.85 16.90 8.37L16.90 8.37L16.90 8.37Q17.19 8.89 17.64 8.89ZM26.28 8.67L26.28 10.50L21.97 10.50L21.97 8.67L22.55 8.67L22.55 5.32L21.97 5.32L21.97 3.50L24.95 3.50L25.27 4.37L25.27 4.37Q25.63 3.88 26.12 3.56L26.12 3.56L26.12 3.56Q26.60 3.25 27.27 3.25L27.27 3.25L27.27 3.25Q28.08 3.25 28.58 3.52L28.58 3.52L28.58 3.52Q29.08 3.79 29.35 4.23L29.35 4.23L29.35 4.23Q29.62 4.68 29.71 5.23L29.71 5.23L29.71 5.23Q29.81 5.78 29.81 6.33L29.81 6.33L29.81 8.67L30.46 8.67L30.46 10.50L26.94 10.50L26.94 6.68L26.94 6.68Q26.94 6.50 26.93 6.27L26.93 6.27L26.93 6.27Q26.92 6.05 26.85 5.85L26.85 5.85L26.85 5.85Q26.78 5.66 26.62 5.52L26.62 5.52L26.62 5.52Q26.46 5.38 26.15 5.38L26.15 5.38L26.15 5.38Q25.89 5.38 25.71 5.50L25.71 5.50L25.71 5.50Q25.54 5.61 25.44 5.80L25.44 5.80L25.44 5.80Q25.34 5.99 25.30 6.22L25.30 6.22L25.30 6.22Q25.27 6.45 25.27 6.68L25.27 6.68L25.27 8.67L26.28 8.67ZM36.88 8.18L38.05 9.53L38.05 9.53Q37.27 10.21 36.40 10.48L36.40 10.48L36.40 10.48Q35.53 10.75 34.44 10.75L34.44 10.75L34.44 10.75Q33.78 10.75 33.12 10.54L33.12 10.54L33.12 10.54Q32.47 10.32 31.94 9.86L31.94 9.86L31.94 9.86Q31.42 9.41 31.08 8.69L31.08 8.69L31.08 8.69Q30.74 7.97 30.74 6.96L30.74 6.96L30.74 6.96Q30.74 6.10 31.04 5.42L31.04 5.42L31.04 5.42Q31.33 4.75 31.84 4.27L31.84 4.27L31.84 4.27Q32.34 3.79 33.03 3.55L33.03 3.55L33.03 3.55Q33.71 3.30 34.51 3.30L34.51 3.30L34.51 3.30Q35.14 3.30 35.68 3.46L35.68 3.46L35.68 3.46Q36.22 3.61 36.65 3.88L36.65 3.88L36.65 3.88Q37.09 4.14 37.39 4.52L37.39 4.52L37.39 4.52Q37.70 4.90 37.86 5.33L37.86 5.33L37.86 5.33Q37.91 5.52 37.97 5.80L37.97 5.80L37.97 5.80Q38.02 6.08 38.05 6.40L38.05 6.40L38.05 6.40Q38.07 6.72 38.03 7.06L38.03 7.06L38.03 7.06Q38.00 7.41 37.88 7.70L37.88 7.70L33.47 7.70L33.47 7.70Q33.50 7.84 33.56 8.04L33.56 8.04L33.56 8.04Q33.63 8.23 33.78 8.41L33.78 8.41L33.78 8.41Q33.94 8.60 34.20 8.72L34.20 8.72L34.20 8.72Q34.47 8.85 34.92 8.85L34.92 8.85L34.92 8.85Q35.10 8.85 35.31 8.83L35.31 8.83L35.31 8.83Q35.53 8.82 35.78 8.75L35.78 8.75L35.78 8.75Q36.04 8.68 36.32 8.55L36.32 8.55L36.32 8.55Q36.60 8.41 36.88 8.18L36.88 8.18ZM34.59 5.19L34.59 5.19L34.59 5.19Q34.27 5.19 34.07 5.32L34.07 5.32L34.07 5.32Q33.87 5.45 33.75 5.62L33.75 5.62L33.75 5.62Q33.63 5.80 33.58 5.99L33.58 5.99L33.58 5.99Q33.53 6.19 33.52 6.31L33.52 6.31L35.63 6.31L35.63 6.31Q35.63 6.12 35.59 5.92L35.59 5.92L35.59 5.92Q35.55 5.71 35.44 5.55L35.44 5.55L35.44 5.55Q35.34 5.39 35.13 5.29L35.13 5.29L35.13 5.29Q34.93 5.19 34.59 5.19ZM44.46 8.18L45.64 9.53L45.64 9.53Q44.86 10.21 43.99 10.48L43.99 10.48L43.99 10.48Q43.12 10.75 42.03 10.75L42.03 10.75L42.03 10.75Q41.37 10.75 40.71 10.54L40.71 10.54L40.71 10.54Q40.05 10.32 39.53 9.86L39.53 9.86L39.53 9.86Q39.00 9.41 38.67 8.69L38.67 8.69L38.67 8.69Q38.33 7.97 38.33 6.96L38.33 6.96L38.33 6.96Q38.33 6.10 38.63 5.42L38.63 5.42L38.63 5.42Q38.92 4.75 39.42 4.27L39.42 4.27L39.42 4.27Q39.93 3.79 40.61 3.55L40.61 3.55L40.61 3.55Q41.30 3.30 42.10 3.30L42.10 3.30L42.10 3.30Q42.73 3.30 43.27 3.46L43.27 3.46L43.27 3.46Q43.81 3.61 44.24 3.88L44.24 3.88L44.24 3.88Q44.67 4.14 44.98 4.52L44.98 4.52L44.98 4.52Q45.29 4.90 45.44 5.33L45.44 5.33L45.44 5.33Q45.50 5.52 45.56 5.80L45.56 5.80L45.56 5.80Q45.61 6.08 45.63 6.40L45.63 6.40L45.63 6.40Q45.65 6.72 45.62 7.06L45.62 7.06L45.62 7.06Q45.58 7.41 45.47 7.70L45.47 7.70L41.06 7.70L41.06 7.70Q41.09 7.84 41.15 8.04L41.15 8.04L41.15 8.04Q41.22 8.23 41.37 8.41L41.37 8.41L41.37 8.41Q41.52 8.60 41.79 8.72L41.79 8.72L41.79 8.72Q42.06 8.85 42.50 8.85L42.50 8.85L42.50 8.85Q42.69 8.85 42.90 8.83L42.90 8.83L42.90 8.83Q43.12 8.82 43.37 8.75L43.37 8.75L43.37 8.75Q43.62 8.68 43.90 8.55L43.90 8.55L43.90 8.55Q44.18 8.41 44.46 8.18L44.46 8.18ZM42.18 5.19L42.18 5.19L42.18 5.19Q41.86 5.19 41.66 5.32L41.66 5.32L41.66 5.32Q41.45 5.45 41.34 5.62L41.34 5.62L41.34 5.62Q41.22 5.80 41.17 5.99L41.17 5.99L41.17 5.99Q41.12 6.19 41.10 6.31L41.10 6.31L43.22 6.31L43.22 6.31Q43.22 6.12 43.18 5.92L43.18 5.92L43.18 5.92Q43.13 5.71 43.03 5.55L43.03 5.55L43.03 5.55Q42.92 5.39 42.72 5.29L42.72 5.29L42.72 5.29Q42.52 5.19 42.18 5.19ZM50.16 8.67L50.16 10.50L46.20 10.50L46.20 8.67L46.82 8.67L46.82 5.32L46.21 5.32L46.21 3.50L48.85 3.50L49.27 4.40L49.27 4.40Q49.41 4.14 49.56 3.92L49.56 3.92L49.56 3.92Q49.71 3.70 49.95 3.52L49.95 3.52L49.95 3.52Q50.19 3.35 50.54 3.25L50.54 3.25L50.54 3.25Q50.89 3.15 51.44 3.15L51.44 3.15L51.44 5.67L51.44 5.67Q50.48 5.67 49.97 5.99L49.97 5.99L49.97 5.99Q49.46 6.30 49.46 7.22L49.46 7.22L49.46 8.67L50.16 8.67ZM56.13 7.34L56.20 7.34L56.20 7.34Q56.21 7.20 56.28 6.82L56.28 6.82L56.28 6.82Q56.35 6.44 56.45 5.95L56.45 5.95L56.45 5.95Q56.55 5.46 56.66 4.91L56.66 4.91L56.66 4.91Q56.77 4.37 56.88 3.86L56.88 3.86L57.58 0.71L60.49 0.71L61.38 4.58L61.38 4.58Q61.45 4.91 61.52 5.29L61.52 5.29L61.52 5.29Q61.59 5.67 61.64 6.03L61.64 6.03L61.64 6.03Q61.68 6.40 61.73 6.73L61.73 6.73L61.73 6.73Q61.77 7.07 61.80 7.34L61.80 7.34L61.87 7.34L61.87 7.34Q61.88 7.10 61.94 6.73L61.94 6.73L61.94 6.73Q61.99 6.37 62.05 5.99L62.05 5.99L62.05 5.99Q62.12 5.60 62.18 5.24L62.18 5.24L62.18 5.24Q62.24 4.89 62.29 4.66L62.29 4.66L62.76 2.53L61.99 2.53L61.99 0.71L66.00 0.71L66.00 2.53L65.23 2.53L63.14 10.50L59.82 10.50L58.98 7.17L58.98 7.17Q58.94 6.99 58.88 6.75L58.88 6.75L58.88 6.75Q58.83 6.52 58.79 6.29L58.79 6.29L58.79 6.29Q58.74 6.05 58.70 5.82L58.70 5.82L58.70 5.82Q58.66 5.60 58.63 5.43L58.63 5.43L58.58 5.43L58.58 5.43Q58.55 5.59 58.51 5.82L58.51 5.82L58.51 5.82Q58.48 6.05 58.43 6.29L58.43 6.29L58.43 6.29Q58.38 6.54 58.33 6.76L58.33 6.76L58.33 6.76Q58.28 6.99 58.24 7.14L58.24 7.14L57.39 10.50L54.14 10.50L52.29 2.53L51.51 2.53L51.51 0.71L56.13 0.71L56.13 2.53L55.31 2.53L55.68 4.58L55.68 4.58Q55.73 4.83 55.80 5.24L55.80 5.24L55.80 5.24Q55.87 5.64 55.94 6.05L55.94 6.05L55.94 6.05Q56 6.47 56.05 6.82L56.05 6.82L56.05 6.82Q56.10 7.18 56.13 7.34L56.13 7.34ZM70.60 8.67L70.60 10.50L66.21 10.50L66.21 8.67L66.79 8.67L66.79 1.82L66.21 1.82L66.21 0L69.59 0L69.59 4.37L69.59 4.37Q69.65 4.27 69.86 4.09L69.86 4.09L69.86 4.09Q70.07 3.91 70.37 3.72L70.37 3.72L70.37 3.72Q70.67 3.53 71.04 3.39L71.04 3.39L71.04 3.39Q71.41 3.25 71.79 3.25L71.79 3.25L71.79 3.25Q72.60 3.25 73.09 3.52L73.09 3.52L73.09 3.52Q73.57 3.79 73.83 4.23L73.83 4.23L73.83 4.23Q74.09 4.68 74.16 5.23L74.16 5.23L74.16 5.23Q74.24 5.78 74.24 6.33L74.24 6.33L74.24 8.67L74.90 8.67L74.90 10.50L71.30 10.50L71.30 6.69L71.30 6.69Q71.30 6.51 71.29 6.29L71.29 6.29L71.29 6.29Q71.27 6.06 71.20 5.87L71.20 5.87L71.20 5.87Q71.12 5.67 70.95 5.53L70.95 5.53L70.95 5.53Q70.78 5.39 70.48 5.39L70.48 5.39L70.48 5.39Q70.21 5.39 70.03 5.51L70.03 5.51L70.03 5.51Q69.86 5.63 69.76 5.82L69.76 5.82L69.76 5.82Q69.66 6.01 69.63 6.24L69.63 6.24L69.63 6.24Q69.59 6.47 69.59 6.69L69.59 6.69L69.59 8.67L70.60 8.67ZM81.31 8.18L82.49 9.53L82.49 9.53Q81.70 10.21 80.84 10.48L80.84 10.48L80.84 10.48Q79.97 10.75 78.88 10.75L78.88 10.75L78.88 10.75Q78.22 10.75 77.56 10.54L77.56 10.54L77.56 10.54Q76.90 10.32 76.38 9.86L76.38 9.86L76.38 9.86Q75.85 9.41 75.52 8.69L75.52 8.69L75.52 8.69Q75.18 7.97 75.18 6.96L75.18 6.96L75.18 6.96Q75.18 6.10 75.47 5.42L75.47 5.42L75.47 5.42Q75.77 4.75 76.27 4.27L76.27 4.27L76.27 4.27Q76.78 3.79 77.46 3.55L77.46 3.55L77.46 3.55Q78.15 3.30 78.95 3.30L78.95 3.30L78.95 3.30Q79.58 3.30 80.11 3.46L80.11 3.46L80.11 3.46Q80.65 3.61 81.09 3.88L81.09 3.88L81.09 3.88Q81.52 4.14 81.83 4.52L81.83 4.52L81.83 4.52Q82.14 4.90 82.29 5.33L82.29 5.33L82.29 5.33Q82.35 5.52 82.40 5.80L82.40 5.80L82.40 5.80Q82.46 6.08 82.48 6.40L82.48 6.40L82.48 6.40Q82.50 6.72 82.47 7.06L82.47 7.06L82.47 7.06Q82.43 7.41 82.32 7.70L82.32 7.70L77.91 7.70L77.91 7.70Q77.94 7.84 78.00 8.04L78.00 8.04L78.00 8.04Q78.06 8.23 78.22 8.41L78.22 8.41L78.22 8.41Q78.37 8.60 78.64 8.72L78.64 8.72L78.64 8.72Q78.90 8.85 79.35 8.85L79.35 8.85L79.35 8.85Q79.53 8.85 79.75 8.83L79.75 8.83L79.75 8.83Q79.97 8.82 80.22 8.75L80.22 8.75L80.22 8.75Q80.47 8.68 80.75 8.55L80.75 8.55L80.75 8.55Q81.03 8.41 81.31 8.18L81.31 8.18ZM79.03 5.19L79.03 5.19L79.03 5.19Q78.71 5.19 78.50 5.32L78.50 5.32L78.50 5.32Q78.30 5.45 78.18 5.62L78.18 5.62L78.18 5.62Q78.06 5.80 78.02 5.99L78.02 5.99L78.02 5.99Q77.97 6.19 77.95 6.31L77.95 6.31L80.07 6.31L80.07 6.31Q80.07 6.12 80.02 5.92L80.02 5.92L80.02 5.92Q79.98 5.71 79.88 5.55L79.88 5.55L79.88 5.55Q79.77 5.39 79.57 5.29L79.57 5.29L79.57 5.29Q79.37 5.19 79.03 5.19ZM88.90 8.18L90.08 9.53L90.08 9.53Q89.29 10.21 88.42 10.48L88.42 10.48L88.42 10.48Q87.56 10.75 86.46 10.75L86.46 10.75L86.46 10.75Q85.81 10.75 85.15 10.54L85.15 10.54L85.15 10.54Q84.49 10.32 83.96 9.86L83.96 9.86L83.96 9.86Q83.44 9.41 83.10 8.69L83.10 8.69L83.10 8.69Q82.77 7.97 82.77 6.96L82.77 6.96L82.77 6.96Q82.77 6.10 83.06 5.42L83.06 5.42L83.06 5.42Q83.36 4.75 83.86 4.27L83.86 4.27L83.86 4.27Q84.36 3.79 85.05 3.55L85.05 3.55L85.05 3.55Q85.74 3.30 86.53 3.30L86.53 3.30L86.53 3.30Q87.16 3.30 87.70 3.46L87.70 3.46L87.70 3.46Q88.24 3.61 88.68 3.88L88.68 3.88L88.68 3.88Q89.11 4.14 89.42 4.52L89.42 4.52L89.42 4.52Q89.73 4.90 89.88 5.33L89.88 5.33L89.88 5.33Q89.94 5.52 89.99 5.80L89.99 5.80L89.99 5.80Q90.05 6.08 90.07 6.40L90.07 6.40L90.07 6.40Q90.09 6.72 90.05 7.06L90.05 7.06L90.05 7.06Q90.02 7.41 89.91 7.70L89.91 7.70L85.50 7.70L85.50 7.70Q85.53 7.84 85.59 8.04L85.59 8.04L85.59 8.04Q85.65 8.23 85.81 8.41L85.81 8.41L85.81 8.41Q85.96 8.60 86.23 8.72L86.23 8.72L86.23 8.72Q86.49 8.85 86.94 8.85L86.94 8.85L86.94 8.85Q87.12 8.85 87.34 8.83L87.34 8.83L87.34 8.83Q87.56 8.82 87.81 8.75L87.81 8.75L87.81 8.75Q88.06 8.68 88.34 8.55L88.34 8.55L88.34 8.55Q88.62 8.41 88.90 8.18L88.90 8.18ZM86.62 5.19L86.62 5.19L86.62 5.19Q86.30 5.19 86.09 5.32L86.09 5.32L86.09 5.32Q85.89 5.45 85.77 5.62L85.77 5.62L85.77 5.62Q85.65 5.80 85.60 5.99L85.60 5.99L85.60 5.99Q85.55 6.19 85.54 6.31L85.54 6.31L87.65 6.31L87.65 6.31Q87.65 6.12 87.61 5.92L87.61 5.92L87.61 5.92Q87.57 5.71 87.46 5.55L87.46 5.55L87.46 5.55Q87.36 5.39 87.16 5.29L87.16 5.29L87.16 5.29Q86.95 5.19 86.62 5.19ZM94.72 8.67L94.72 10.50L90.64 10.50L90.64 8.67L91.24 8.67L91.24 1.81L90.65 1.81L90.65 0L93.90 0L93.90 8.67L94.72 8.67ZM96.89 10.50L95.14 10.50L95.14 7.98L97.02 7.98L97.02 7.98Q97.02 8.26 97.19 8.44L97.19 8.44L97.19 8.44Q97.37 8.62 97.61 8.73L97.61 8.73L97.61 8.73Q97.85 8.83 98.10 8.88L98.10 8.88L98.10 8.88Q98.35 8.92 98.50 8.92L98.50 8.92L98.50 8.92Q98.71 8.92 98.92 8.83L98.92 8.83L98.92 8.83Q99.12 8.74 99.12 8.44L99.12 8.44L99.12 8.44Q99.12 8.29 98.94 8.18L98.94 8.18L98.94 8.18Q98.76 8.08 98.47 7.99L98.47 7.99L98.47 7.99Q98.18 7.91 97.81 7.82L97.81 7.82L97.81 7.82Q97.44 7.73 97.06 7.60L97.06 7.60L97.06 7.60Q96.70 7.48 96.37 7.29L96.37 7.29L96.37 7.29Q96.04 7.11 95.77 6.85L95.77 6.85L95.77 6.85Q95.51 6.58 95.35 6.22L95.35 6.22L95.35 6.22Q95.20 5.85 95.20 5.36L95.20 5.36L95.20 5.36Q95.20 4.83 95.44 4.45L95.44 4.45L95.44 4.45Q95.69 4.06 96.06 3.81L96.06 3.81L96.06 3.81Q96.43 3.57 96.86 3.45L96.86 3.45L96.86 3.45Q97.29 3.33 97.66 3.33L97.66 3.33L97.66 3.33Q98.38 3.33 98.95 3.65L98.95 3.65L98.95 3.65Q99.53 3.98 99.75 4.42L99.75 4.42L99.86 3.50L101.58 3.50L101.58 6.02L99.76 6.02L99.76 6.02Q99.76 5.80 99.64 5.61L99.64 5.61L99.64 5.61Q99.51 5.42 99.31 5.27L99.31 5.27L99.31 5.27Q99.11 5.12 98.85 5.04L98.85 5.04L98.85 5.04Q98.60 4.96 98.34 4.96L98.34 4.96L98.34 4.96Q98.11 4.96 97.95 5.08L97.95 5.08L97.95 5.08Q97.79 5.19 97.79 5.46L97.79 5.46L97.79 5.46Q97.79 5.61 97.93 5.72L97.93 5.72L97.93 5.72Q98.07 5.82 98.31 5.92L98.31 5.92L98.31 5.92Q98.56 6.02 98.87 6.12L98.87 6.12L98.87 6.12Q99.18 6.22 99.51 6.33L99.51 6.33L99.51 6.33Q99.90 6.47 100.31 6.63L100.31 6.63L100.31 6.63Q100.72 6.79 101.04 7.04L101.04 7.04L101.04 7.04Q101.36 7.28 101.56 7.65L101.56 7.65L101.56 7.65Q101.77 8.02 101.77 8.57L101.77 8.57L101.77 8.57Q101.77 9.06 101.55 9.45L101.55 9.45L101.55 9.45Q101.33 9.84 100.97 10.12L100.97 10.12L100.97 10.12Q100.62 10.39 100.14 10.53L100.14 10.53L100.14 10.53Q99.67 10.67 99.16 10.67L99.16 10.67L99.16 10.67Q98.41 10.67 97.84 10.36L97.84 10.36L97.84 10.36Q97.27 10.05 97.02 9.65L97.02 9.65L96.89 10.50Z"></path></g><!----><g data-v-423bf9ae="" id="e757445d-cd5f-45b7-9099-cb8e785b3ad0" transform="matrix(5.373222181532118,0,0,5.373222181532118,0.5576508462117999,0.781706678737919)" stroke="none" fill="white"><path d="M82.769 0C37.161 0 0 108.485 0 241.916 0 375.388 37.161 483.59 82.769 483.59h12.865c-35.998-43.248-56.475-143.703-56.475-241.674C39.159 143.78 59.636 43.247 95.634 0H82.769zm37.461 0C87.463 22.287 56.07 115.404 56.07 241.916c0 126.347 31.393 219.387 64.16 241.674h31.798C115.905 440.673 95.23 340.051 95.23 241.916c0-98.302 20.675-198.835 56.798-241.916H120.23zm56.151 0c-32.768 22.287-64.241 115.404-64.241 241.916 0 126.347 31.473 219.387 64.241 241.674h44.743c45.65 0 82.769-108.24 82.769-241.835C303.893 108.49 266.774 0 221.124 0h-44.743zm44.661 16.667c42.544 0 77.024 101.06 77.024 225.088.07 124.192-34.399 225.006-76.942 225.006-6.214 0-12.366-2.17-18.125-6.231-3.353-2.362-6.761-5.657-9.951-9.385-28.542-32.933-48.869-114.279-48.869-209.39 0-123.986 34.486-225.088 76.863-225.088zm.07 10.761c-1.491 0-3.241.182-4.774.484-27.879 5.22-51.326 55.626-62.137 126.379-1.699 10.813-3.012 21.934-4.047 33.74-1.491 17.233-2.428 35.284-2.428 53.885 0 66.404 10.379 125.703 26.618 164.891a152.937 152.937 0 0 0 8.577 17.881c4.39 7.953 9.108 14.691 13.996 19.579 7.623 7.789 15.742 12.055 24.193 12.055 14.043 0 27.164-11.502 38.35-31.634a135.549 135.549 0 0 0 8.414-17.881c16.405-39.188 26.538-98.487 26.538-164.891 0-18.601-.645-36.652-2.344-53.885-.995-11.848-2.348-22.969-4.048-33.74-10.853-70.753-34.343-121.159-62.056-126.379-1.492-.327-3.158-.484-4.854-.484zm-15.696 40.778c2.526 0 4.855 3.284 6.553 8.172.182.495.329.999.485 1.535 1.532 5.385 2.593 12.516 2.429 20.469l-2.021 88.271v.182c-1.366 1.7-2.679 4.265-3.882 6.958h-.254l-30.098-22.006c-6.876-4.889-9.614-29.152-5.016-45.39 7.456-26.346 17.571-46.479 29.045-56.96.872-.827 1.758-1.213 2.75-1.213zm31.554.07c.871 0 1.922.291 2.749 1.129 11.475 10.481 21.384 30.573 28.965 56.96 4.515 16.238 1.863 40.582-5.097 45.471l-30.179 21.926c-.182-.496-.292-1.003-.646-1.375-.87-13.505-2.26-26.645-4.125-39.321l-1.134-54.695c-.328-16.569 4.206-30.098 9.467-30.098zm36.328 146.201c5.096 0 9.628 11.324 9.628 27.024v.415c0 40.887-4.707 78.821-12.703 109.226-1.863 7.084-4.548 10.519-7.281 10.519-3.023 0-6.227-4.418-8.091-12.703l-16.668-73.465v-.182c1.7-6.421 2.659-14.249 3.158-22.492l28.075-36.004c1.368-1.7 2.684-2.344 3.882-2.344zm-104.372.07c1.327 0 2.684.689 3.882 2.344l28.075 36.005c.704 8.285 1.667 16.071 3.157 22.492v.183l-16.586 73.465c-2.031 8.284-4.985 12.621-8.01 12.621-2.858 0-5.664-3.354-7.362-10.437-8.077-30.406-12.622-68.42-12.622-109.308v-.327c0-15.701 4.536-27.024 9.466-27.024zm52.024 87.542h.569l7.767 25.163 13.269 42.558c4.681 15.493 2.147 40.363-4.774 45.955-5.261 4.392-10.785 6.716-16.666 6.716-4.351 0-8.843-1.352-13.028-4.047-1.199-.871-2.559-1.674-3.719-2.669-6.918-5.592-9.295-30.422-4.532-45.956l21.118-67.72z"></path></g><!----></svg>